<?xml version="1.0" encoding="UTF-8" standalone="no"?>
<svg
   width="1200"
   height="320"
   viewBox="0 0 1200 320"
   version="1.1"
   id="svg1"
   xmlns="http://www.w3.org/2000/svg"
   xmlns:svg="http://www.w3.org/2000/svg">
  <defs
     id="defs1" />
  <title
     id="title1">Nozu.me light theme logo</title>
  <g
     aria-label="nozu.me"
     id="g1">
    <path
       d="M 305.41504,159.28516 V 222 h -8.53516 v -62.1582 q 0,-20.22461 -6.49414,-28.48145 -6.49414,-8.25683 -19.11133,-8.25683 -14.75097,0 -25.23437,8.90625 -10.57617,8.99902 -10.57617,31.26464 V 222 h -8.53516 V 118.09375 h 8.53516 v 19.48242 q 4.5459,-9.46289 11.96777,-14.47265 10.94727,-7.51465 24.21387,-7.51465 15.40039,0 24.58496,10.4834 9.18457,10.39062 9.18457,33.21289 z m 98.7207,-23.37891 q -9.18457,-12.80273 -25.04883,-12.80273 -15.86425,0 -25.04882,12.70996 -9.27735,12.61718 -9.27735,34.14062 0,22.08008 9.18457,34.69727 9.18457,12.70996 25.1416,12.70996 15.86426,0 25.04883,-12.70996 9.27735,-12.80274 9.27735,-34.69727 0,-21.24512 -9.27735,-34.04785 z m -25.1416,-20.31738 q 19.85352,0 31.35742,14.84375 11.59668,14.93652 11.59668,39.61425 0,25.5127 -11.59668,40.26368 -11.5039,14.84375 -31.35742,14.84375 -20.03906,0 -31.63574,-14.75098 -11.50391,-14.75098 -11.50391,-40.35645 0,-24.95605 11.59668,-39.70703 11.59668,-14.75097 31.54297,-14.75097 z m 63.55957,2.50488 h 81.08399 v 9.83398 l -75.14649,86.83594 H 523.6377 V 222 h -83.40333 v -9.46289 l 75.05372,-87.11426 h -72.73438 z m 104.6582,62.71484 v -62.71484 h 8.53516 v 62.1582 q 0,20.22461 6.49414,28.48145 6.49414,8.25683 19.11133,8.25683 14.75098,0 25.23437,-8.90625 10.57618,-8.99902 10.57618,-31.26464 v -58.72559 h 8.53515 V 222 h -8.53515 v -19.48242 q -4.5459,9.46289 -11.96778,14.47265 -10.94726,7.51465 -24.21386,7.51465 -15.4004,0 -24.58497,-10.4834 -9.18457,-10.39062 -9.18457,-33.21289 z m 120.42969,29.50196 h 9.46289 V 222 h -9.46289 z m 126.27442,-69.58008 q 4.82421,-12.52442 15.21484,-18.92578 9.83398,-6.21582 23.37891,-6.21582 13.54492,0 21.70898,9.55566 8.25684,9.46289 8.25684,34.14063 V 222 h -8.44239 v -62.1582 q 0,-21.52344 -5.9375,-29.13086 -5.9375,-7.60742 -15.77148,-7.60742 -14.28711,0 -25.23438,8.81347 -11.96777,9.55567 -11.96777,31.35742 V 222 h -8.53516 v -62.1582 q 0,-20.78125 -5.75195,-28.75977 -5.75195,-7.97851 -15.95703,-7.97851 -14.28711,0 -25.23438,8.90625 -11.96777,9.55566 -11.96777,31.26464 V 222 h -8.53516 V 118.09375 h 8.53516 v 19.48242 q 4.5459,-10.20508 14.10156,-16.14258 9.64844,-5.84472 23.65723,-5.84472 9.0918,0 17.53418,6.12304 6.49414,4.73145 10.94727,19.01856 z m 186.29882,25.04883 v 5.38086 h -78.85742 q 0,25.04882 9.74121,35.06836 10.76172,11.13281 32.00684,11.13281 5.5664,0 14.75098,-2.41211 9.27734,-2.41211 18.36914,-7.23633 v 8.99902 q -9.18457,3.89649 -18.83301,5.9375 -9.64844,2.04102 -15.30762,2.04102 -24.02832,0 -36.18164,-12.98828 -13.17383,-13.82324 -13.17383,-40.54199 0,-27.73926 12.06055,-41.37696 12.33887,-14.19433 34.32617,-14.19433 20.41016,0 30.80078,13.45215 10.29785,14.10156 10.29785,36.73828 z m -8.62793,-1.85547 q 0,-21.89453 -9.83398,-31.91406 -8.25684,-8.90625 -22.45117,-8.90625 -15.49317,0 -25.97656,9.27734 -9.64844,8.62793 -11.59668,31.54297 z"
       id="text1"
       style="font-weight:300;font-size:190px;font-family:'DejaVu Sans', Arial, sans-serif;letter-spacing:-5;text-anchor:middle;fill:#171717"
       aria-label="nozu.me" />
  </g>
</svg>
